HIERARCHY
ROOT SpineBase
{
  OFFSET 0.000000 0.000000 0.000000
  CHANNELS 6 Xposition Yposition Zposition Zrotation Xrotation Yrotation
  JOINT SpineMid
  {
    OFFSET 0.000000 29.278546 0.000000
    CHANNELS 3 Zrotation Xrotation Yrotation
    JOINT SpineShoulder
    {
      OFFSET 0.474889 21.994653 -0.921074
      CHANNELS 3 Zrotation Xrotation Yrotation
      JOINT Neck
      {
        OFFSET 0.159452 7.247022 -0.704279
        CHANNELS 3 Zrotation Xrotation Yrotation
        JOINT Head
        {
          OFFSET 4.878138 13.412204 0.870125
          CHANNELS 3 Zrotation Xrotation Yrotation
          End Site
          {
            OFFSET 0 0 0
          }
        }
      }
      JOINT ShoulderLeft
      {
        OFFSET -9.862050 -2.791991 -12.616357
        CHANNELS 3 Zrotation Xrotation Yrotation
        JOINT ElbowLeft
        {
          OFFSET -2.493030 -24.103338 -5.611617
          CHANNELS 3 Zrotation Xrotation Yrotation
          JOINT WristLeft
          {
            OFFSET 10.995219 -20.487001 -2.318250
            CHANNELS 3 Zrotation Xrotation Yrotation
            JOINT HandLeft
            {
              OFFSET 0.520819 -3.789328 2.683023
              CHANNELS 3 Zrotation Xrotation Yrotation
              JOINT HandTipLeft
              {
                OFFSET 3.496745 -5.778730 -1.583889
                CHANNELS 3 Zrotation Xrotation Yrotation
                End Site
                {
                  OFFSET 0 0 0
                }
              }
              JOINT ThumbLeft
              {
                OFFSET 5.122551 2.916429 4.411880
                CHANNELS 3 Zrotation Xrotation Yrotation
                End Site
                {
                  OFFSET 0 0 0
                }
              }
            }
          }
        }
      }
      JOINT ShoulderRight
      {
        OFFSET 11.824506 -5.231641 9.070033
        CHANNELS 3 Zrotation Xrotation Yrotation
        JOINT ElbowRight
        {
          OFFSET 1.233215 -27.137131 4.456336
          CHANNELS 3 Zrotation Xrotation Yrotation
          JOINT WristRight
          {
            OFFSET 1.849710 -23.751963 -10.697089
            CHANNELS 3 Zrotation Xrotation Yrotation
            JOINT HandRight
            {
              OFFSET -2.546499 -2.875287 1.110524
              CHANNELS 3 Zrotation Xrotation Yrotation
              JOINT HandTipRight
              {
                OFFSET -1.297632 -3.199221 -0.567857
                CHANNELS 3 Zrotation Xrotation Yrotation
                End Site
                {
                  OFFSET 0 0 0
                }
              }
              JOINT ThumbRight
              {
                OFFSET 2.500754 0.420511 -1.513379
                CHANNELS 3 Zrotation Xrotation Yrotation
                End Site
                {
                  OFFSET 0 0 0
                }
              }
            }
          }
        }
      }
    }
  }
  JOINT HipLeft
  {
    OFFSET -4.868818 1.932010 -7.950812
    CHANNELS 3 Zrotation Xrotation Yrotation
    JOINT KneeLeft
    {
      OFFSET -7.611514 -26.956724 -0.444606
      CHANNELS 3 Zrotation Xrotation Yrotation
      JOINT AnkleLeft
      {
        OFFSET -7.152880 -33.453795 5.750322
        CHANNELS 3 Zrotation Xrotation Yrotation
        JOINT FootLeft
        {
          OFFSET 4.336820 -6.728733 0.935474
          CHANNELS 3 Zrotation Xrotation Yrotation
          End Site
          {
            OFFSET 0 0 0
          }
        }
      }
    }
  }
  JOINT HipRight
  {
    OFFSET 5.437815 0.031171 0.987842
    CHANNELS 3 Zrotation Xrotation Yrotation
    JOINT KneeRight
    {
      OFFSET -2.883371 -27.251873 6.167009
      CHANNELS 3 Zrotation Xrotation Yrotation
      JOINT AnkleRight
      {
        OFFSET -11.584750 -32.151287 2.049811
        CHANNELS 3 Zrotation Xrotation Yrotation
        JOINT FootRight
        {
          OFFSET 2.025964 -8.211191 -4.938003
          CHANNELS 3 Zrotation Xrotation Yrotation
          End Site
          {
            OFFSET 0 0 0
          }
        }
      }
    }
  }
}
MOTION
Frames: 7
Frame Time: 0.033333
-28.339609 80.104500 327.228530 -8.730422 -11.508883 -21.965966 1.275593 1.460796 20.904353 1.884834 1.892361 -0.325990 -7.777422 -7.788306 6.710379 0.000000 0.000000 0.000000 -41.325861 -3.139003 14.655708 -0.194839 12.842703 4.085960 28.951097 34.804075 -16.085564 -20.428709 -54.778516 -11.733600 0.000000 0.000000 0.000000 0.000000 0.000000 0.000000 -99.886000 29.597695 29.081701 25.786743 -44.055769 29.282007 83.533298 -35.121726 2.634442 -34.107228 2.289263 -3.200784 0.000000 0.000000 0.000000 0.000000 0.000000 0.000000 0.577612 15.677930 20.700989 1.672386 -1.775597 0.436510 0.658702 4.299051 3.837439 0.000000 0.000000 0.000000 -2.688531 7.871070 20.349879 11.574369 2.394666 1.708912 0.331109 7.917933 -1.332762 0.000000 0.000000 0.000000
-27.988549 81.331426 327.023419 -7.740588 -10.764195 -17.693882 1.481314 1.487500 16.805003 1.726604 1.886866 -0.269623 -9.186509 -11.274725 7.233115 0.000000 0.000000 0.000000 -43.541274 -9.059837 12.901924 0.829732 17.933887 5.789844 29.095717 35.206272 -16.977511 -18.122115 -56.819280 -11.670679 0.000000 0.000000 0.000000 0.000000 0.000000 0.000000 -80.425290 28.993887 19.107555 20.249519 -35.149106 27.069789 74.968147 -26.455034 -0.620211 -28.410519 -4.160717 -3.797366 0.000000 0.000000 0.000000 0.000000 0.000000 0.000000 1.725936 14.878259 16.294585 1.543125 -1.269487 0.460011 -6.250721 6.960688 5.613312 0.000000 0.000000 0.000000 -1.511218 8.490048 16.303752 7.859346 0.470168 1.850708 -4.560841 2.623589 1.540144 0.000000 0.000000 0.000000
-27.856364 82.431925 328.774274 -7.140032 -12.917603 -19.580485 1.366608 1.801836 18.652223 1.459447 1.486158 -0.270156 -4.175840 -13.931613 8.854453 0.000000 0.000000 0.000000 -44.255888 -8.744142 14.281569 -0.879241 16.867148 3.968826 31.077654 36.213321 -15.565594 -20.847745 -56.394321 -14.513521 0.000000 0.000000 0.000000 0.000000 0.000000 0.000000 -46.005056 27.822424 10.191526 4.312978 -28.139089 16.775159 57.647999 -9.900877 -8.896698 -16.934694 -12.280579 -0.963810 0.000000 0.000000 0.000000 0.000000 0.000000 0.000000 0.913830 18.876494 17.608938 0.293061 -2.515946 0.895731 -7.643777 10.522258 8.604715 0.000000 0.000000 0.000000 -4.852368 14.939338 18.541544 7.676852 -4.446558 2.749973 -6.001796 5.923952 3.631709 0.000000 0.000000 0.000000
-28.847540 83.146645 330.574525 -8.318793 -15.722701 -17.846312 1.308132 2.147008 16.575659 1.034554 0.918046 -0.342242 -3.338053 -15.001868 10.361643 0.000000 0.000000 0.000000 -40.191691 -11.843763 14.284028 -5.365945 19.579423 4.181562 32.644471 45.809444 -11.386466 -35.862432 -63.394649 -35.897173 0.000000 0.000000 0.000000 0.000000 0.000000 0.000000 -15.609971 17.238935 2.005197 -5.223826 -14.592181 11.179681 46.600181 9.518191 -16.867112 -6.386354 -25.170454 8.595167 0.000000 0.000000 0.000000 0.000000 0.000000 0.000000 4.872921 25.608853 13.429077 -3.067178 -5.064385 1.519324 -10.186710 10.323742 8.726426 0.000000 0.000000 0.000000 -4.375181 21.910269 16.821337 6.963765 -8.040992 3.157267 -4.594987 6.209039 2.717897 0.000000 0.000000 0.000000
-30.065826 83.999301 333.974343 -10.227841 -21.263254 -12.030699 1.556956 2.308479 9.973738 0.510854 0.335971 -0.444011 0.226196 -11.271985 11.221937 0.000000 0.000000 0.000000 -35.112561 -14.679598 15.584321 -8.512709 21.982544 1.958244 28.507861 55.278351 -5.575481 -45.212477 -66.638589 -49.870009 0.000000 0.000000 0.000000 0.000000 0.000000 0.000000 0.885718 16.579010 -0.092451 -7.223083 -10.129922 5.600122 40.383892 28.766141 -31.219083 11.402966 -36.559597 29.851528 0.000000 0.000000 0.000000 0.000000 0.000000 0.000000 11.831532 36.160096 2.301044 -5.053805 -9.512635 2.674115 -21.151015 13.769760 12.497468 0.000000 0.000000 0.000000 -1.408727 31.831521 10.112959 8.240274 -10.254082 3.543334 -4.732936 5.442230 2.156779 0.000000 0.000000 0.000000
-31.467199 84.498934 338.095738 -12.491668 -28.127057 -8.102175 1.598519 2.272829 4.859586 0.489765 0.355443 -0.566481 10.050558 -5.557766 9.850181 0.000000 0.000000 0.000000 -30.416384 -16.982658 17.300367 -10.369870 23.836026 -1.864698 29.142859 54.241195 -2.706300 -43.241448 -60.334202 -44.190868 0.000000 0.000000 0.000000 0.000000 0.000000 0.000000 8.423401 20.948566 -1.791570 -6.661255 -11.577666 2.254112 42.101835 41.456077 -46.005898 28.635593 -38.017811 49.481405 0.000000 0.000000 0.000000 0.000000 0.000000 0.000000 21.292281 47.006142 -10.145265 -4.836483 -13.847873 4.314030 -17.513306 16.059884 14.994982 0.000000 0.000000 0.000000 4.045478 43.902174 3.388430 9.089344 -14.869339 4.667814 -5.845454 6.717868 1.997493 0.000000 0.000000 0.000000
-32.250261 84.310979 341.292368 -13.596341 -35.231265 -4.190181 1.366602 1.792288 -0.113170 0.375238 0.633515 -0.599873 20.488188 8.173124 2.115783 0.000000 0.000000 0.000000 -28.329861 -23.292596 19.250640 -7.580653 29.589020 -6.688502 29.664917 36.510365 -7.394675 -27.748200 -44.694025 -17.863989 0.000000 0.000000 0.000000 0.000000 0.000000 0.000000 10.031691 26.038345 -2.927127 -6.507683 -13.067922 1.858936 41.644953 43.410428 -44.952120 27.891502 -35.182191 45.208333 0.000000 0.000000 0.000000 0.000000 0.000000 0.000000 31.499623 55.411430 -23.978096 -1.858992 -15.925840 6.224633 -17.219645 20.189497 19.396773 0.000000 0.000000 0.000000 10.628065 52.425609 -5.001019 10.041878 -14.158358 4.366156 -6.765003 6.192784 2.911456 0.000000 0.000000 0.000000
